<svg width="24" height="24" viewBox="0 0 24 24" fill="none" xmlns="http://www.w3.org/2000/svg">
<path d="M12.0605 0.00292969C12.0878 0.00405367 12.1152 0.00413313 12.1426 0.00683594C12.158 0.00839136 12.1732 0.0116252 12.1885 0.0136719C12.2203 0.017869 12.2524 0.0219215 12.2842 0.0283203C12.2898 0.029449 12.2952 0.0310328 12.3008 0.0322266C12.3855 0.0503191 12.4698 0.0760427 12.5527 0.110352C12.5859 0.124093 12.6178 0.140379 12.6494 0.15625C12.6584 0.160774 12.6679 0.164235 12.6768 0.168945L12.6865 0.173828C13.0135 0.349904 13.247 0.639419 13.3623 0.97168C13.6978 1.60011 14.5103 2.64955 15.6699 3.12988L15.9092 3.21875C17.0391 3.59781 18.2631 3.41736 18.8828 3.2168C18.9333 3.19484 18.9854 3.17527 19.0381 3.15918C19.059 3.15281 19.0806 3.14795 19.1016 3.14258C19.1277 3.13589 19.1542 3.12925 19.1807 3.12402C19.1984 3.12053 19.2166 3.11803 19.2344 3.11523C19.2615 3.11095 19.289 3.10626 19.3164 3.10352C19.3407 3.10111 19.3654 3.10075 19.3896 3.09961C19.409 3.09867 19.4288 3.09684 19.4482 3.09668H19.4688C19.4885 3.09684 19.5086 3.09863 19.5283 3.09961C19.5483 3.10058 19.5688 3.10073 19.5889 3.10254L19.6084 3.10449C19.6217 3.1059 19.6352 3.10857 19.6484 3.11035C19.7241 3.12046 19.8001 3.13553 19.875 3.1582C19.921 3.17209 19.9664 3.18867 20.0107 3.20703L20.1436 3.26953C20.2114 3.30601 20.2743 3.34896 20.334 3.39453C20.3463 3.40391 20.3591 3.41306 20.3711 3.42285C20.4303 3.47121 20.4841 3.52479 20.5342 3.58105C20.5473 3.59575 20.5617 3.60969 20.5742 3.625C20.5886 3.64261 20.6017 3.66147 20.6152 3.67969C20.6286 3.6977 20.6427 3.71563 20.6553 3.73438C20.6718 3.75896 20.6862 3.78506 20.7012 3.81055C20.7108 3.82702 20.7214 3.84338 20.7305 3.86035C20.7975 3.98614 20.8463 4.12147 20.874 4.26172C20.9088 4.43738 20.9084 4.61458 20.8789 4.78516C20.8771 4.79566 20.8761 4.8069 20.874 4.81738C20.8537 4.9206 20.8212 5.02113 20.7793 5.11719C20.5648 5.78181 20.3771 7.13801 20.8701 8.32812L20.9756 8.56055C21.4951 9.60415 22.4576 10.333 23.042 10.6416C23.0638 10.6494 23.0868 10.6571 23.1084 10.666C23.6186 10.8777 23.9425 11.3482 23.9922 11.8623C23.9934 11.8749 23.9942 11.8878 23.9951 11.9004C23.9974 11.9334 23.999 11.9668 23.999 12C23.999 12.0185 23.9978 12.0372 23.9971 12.0557C23.9959 12.0864 23.9944 12.1176 23.9912 12.1484C23.9383 12.6586 23.6153 13.1248 23.1084 13.335C23.0868 13.3439 23.0638 13.3516 23.042 13.3594C22.4575 13.6681 21.4949 14.3966 20.9756 15.4404L20.8701 15.6729C20.3776 16.8625 20.5649 18.2172 20.7793 18.8818C20.8214 18.9782 20.8536 19.079 20.874 19.1826C20.8761 19.1932 20.8771 19.2043 20.8789 19.2148C20.8929 19.2956 20.9014 19.378 20.9014 19.4609C20.9013 19.4774 20.9 19.4943 20.8994 19.5107C20.8967 19.5857 20.8888 19.6613 20.874 19.7363C20.8464 19.8772 20.7978 20.0134 20.7305 20.1396C20.7214 20.1565 20.7108 20.1731 20.7012 20.1895C20.6863 20.2148 20.6717 20.2411 20.6553 20.2656C20.6427 20.2843 20.6285 20.3024 20.6152 20.3203C20.6018 20.3384 20.5885 20.3575 20.5742 20.375C20.5617 20.3902 20.5472 20.4044 20.5342 20.4189C20.4857 20.4734 20.434 20.5262 20.377 20.5732C20.3557 20.5907 20.3327 20.6069 20.3105 20.623C20.2194 20.6897 20.1197 20.7488 20.0107 20.7939C19.9823 20.8057 19.9525 20.8154 19.9238 20.8252C19.9077 20.8307 19.8913 20.8369 19.875 20.8418C19.8002 20.8644 19.724 20.8795 19.6484 20.8896C19.6352 20.8914 19.6217 20.8941 19.6084 20.8955L19.5889 20.8975C19.5688 20.8993 19.5483 20.8994 19.5283 20.9004C19.5086 20.9014 19.4885 20.9032 19.4688 20.9033H19.4482C19.4288 20.9032 19.409 20.9013 19.3896 20.9004C19.3654 20.8992 19.3407 20.8989 19.3164 20.8965C19.289 20.8937 19.2615 20.8891 19.2344 20.8848C19.2166 20.882 19.1984 20.8795 19.1807 20.876C19.1542 20.8707 19.1277 20.8641 19.1016 20.8574C19.0806 20.852 19.059 20.8472 19.0381 20.8408C18.9853 20.8247 18.9334 20.8052 18.8828 20.7832C18.2632 20.5826 17.0392 20.4022 15.9092 20.7812L15.6699 20.8701C14.5101 21.3506 13.6977 22.4 13.3623 23.0283C13.2318 23.404 12.9492 23.7255 12.5527 23.8896C12.4725 23.9228 12.3906 23.9469 12.3086 23.9648C12.3001 23.9667 12.2917 23.969 12.2832 23.9707C12.2484 23.9777 12.2135 23.982 12.1787 23.9863C12.167 23.9878 12.1553 23.99 12.1436 23.9912C12.1159 23.994 12.0882 23.994 12.0605 23.9951C12.04 23.996 12.0196 23.998 11.999 23.998C11.9778 23.998 11.9567 23.9961 11.9355 23.9951C11.9089 23.9939 11.8822 23.9939 11.8555 23.9912C11.8394 23.9896 11.8236 23.9866 11.8076 23.9844C11.7774 23.9803 11.747 23.9768 11.7168 23.9707C11.7023 23.9678 11.6882 23.9633 11.6738 23.96C11.5976 23.9422 11.521 23.9206 11.4463 23.8896C11.0498 23.7254 10.7662 23.4042 10.6357 23.0283C10.3001 22.3998 9.48867 21.3504 8.3291 20.8701L8.08984 20.7812C6.95981 20.4022 5.73572 20.5826 5.11621 20.7832C5.06571 20.8051 5.01365 20.8247 4.96094 20.8408C4.94009 20.8472 4.9184 20.8521 4.89746 20.8574C4.87139 20.8641 4.84481 20.8708 4.81836 20.876C4.80067 20.8794 4.78236 20.882 4.76465 20.8848C4.73756 20.8891 4.70999 20.8938 4.68262 20.8965C4.65838 20.8989 4.63357 20.8992 4.60938 20.9004C4.59003 20.9013 4.57021 20.9032 4.55078 20.9033H4.53027C4.51052 20.9031 4.49037 20.9014 4.4707 20.9004C4.45072 20.8994 4.43017 20.8993 4.41016 20.8975L4.39062 20.8955C4.37736 20.8941 4.36378 20.8914 4.35059 20.8896C4.27502 20.8795 4.19887 20.8645 4.12402 20.8418C4.10771 20.8368 4.09132 20.8307 4.0752 20.8252C4.04643 20.8154 4.01676 20.8057 3.98828 20.7939C3.87931 20.7488 3.77964 20.6897 3.68848 20.623C3.66625 20.6068 3.64339 20.5908 3.62207 20.5732C3.56497 20.5261 3.51337 20.4735 3.46484 20.4189C3.45172 20.4043 3.43735 20.3903 3.4248 20.375C3.4104 20.3574 3.39732 20.3385 3.38379 20.3203C3.37039 20.3023 3.35637 20.2844 3.34375 20.2656C3.32724 20.241 3.3128 20.215 3.29785 20.1895C3.28818 20.173 3.27763 20.1566 3.26855 20.1396C3.20117 20.0133 3.15266 19.8772 3.125 19.7363C3.11025 19.6613 3.10228 19.5857 3.09961 19.5107C3.09902 19.4943 3.09769 19.4774 3.09766 19.4609C3.09761 19.378 3.10614 19.2956 3.12012 19.2148C3.12194 19.2043 3.12295 19.1931 3.125 19.1826C3.14536 19.0791 3.17764 18.9782 3.21973 18.8818C3.43412 18.2171 3.62159 16.8626 3.12891 15.6729L3.02344 15.4404C2.504 14.3964 1.54153 13.668 0.957031 13.3594C0.935188 13.3515 0.912286 13.3439 0.890625 13.335C0.383202 13.1245 0.0600525 12.6574 0.00781255 12.1465C0.00475724 12.1169 0.00315737 12.0871 0.00195318 12.0576C0.00119329 12.0385 3.41254e-06 12.0192 5.39176e-08 12C-9.16133e-06 11.9805 0.00116492 11.9608 0.00195318 11.9414C0.00489256 11.8703 0.0125726 11.7987 0.0263672 11.7275C0.114927 11.267 0.425284 10.8581 0.890625 10.665C0.912228 10.6561 0.935242 10.6484 0.957031 10.6406C1.54144 10.3321 2.50394 9.60338 3.02344 8.55957L3.12891 8.32715C3.62158 7.13751 3.4341 5.78298 3.21973 5.11816C3.1776 5.02181 3.14539 4.92094 3.125 4.81738C3.12292 4.80685 3.12192 4.79571 3.12012 4.78516C3.09069 4.61522 3.09064 4.43868 3.125 4.26367C3.15262 4.12286 3.20126 3.98662 3.26855 3.86035C3.27755 3.84348 3.28824 3.82692 3.29785 3.81055C3.31272 3.78517 3.32735 3.75886 3.34375 3.73438C3.35628 3.71574 3.37047 3.69758 3.38379 3.67969C3.39722 3.66159 3.41052 3.64251 3.4248 3.625C3.43726 3.60982 3.4518 3.59562 3.46484 3.58105C3.51482 3.5249 3.56887 3.47113 3.62793 3.42285C3.63983 3.41315 3.65284 3.40382 3.66504 3.39453C3.76228 3.32028 3.86994 3.25514 3.98828 3.20605C4.0167 3.19429 4.04648 3.18462 4.0752 3.1748C4.09128 3.16932 4.10775 3.16314 4.12402 3.1582C4.19886 3.13554 4.27503 3.12047 4.35059 3.11035C4.36378 3.10858 4.37737 3.10592 4.39062 3.10449L4.41016 3.10254C4.43018 3.10071 4.45071 3.10057 4.4707 3.09961C4.49038 3.09864 4.51051 3.09686 4.53027 3.09668H4.55078C4.57024 3.09682 4.59 3.09866 4.60938 3.09961C4.63361 3.10076 4.65834 3.10113 4.68262 3.10352C4.71004 3.10625 4.73751 3.11094 4.76465 3.11523C4.78242 3.11804 4.80061 3.12054 4.81836 3.12402C4.84487 3.12925 4.87133 3.13589 4.89746 3.14258C4.91846 3.14796 4.94003 3.15281 4.96094 3.15918C5.01372 3.17527 5.06564 3.19483 5.11621 3.2168C5.73569 3.41739 6.95986 3.5977 8.08984 3.21875L8.3291 3.12988C9.48837 2.64976 10.3 1.60022 10.6357 0.97168C10.7661 0.595633 11.0497 0.274739 11.4463 0.110352C11.5233 0.0784928 11.6021 0.0549741 11.6807 0.0371094C11.6927 0.0343483 11.7046 0.0307724 11.7168 0.0283203C11.7434 0.0229875 11.7702 0.0194135 11.7969 0.015625C11.8167 0.0127695 11.8365 0.00886498 11.8564 0.00683594C11.8828 0.00421646 11.9092 0.00408082 11.9355 0.00292969C11.9538 0.00208983 11.9719 0.000144988 11.9902 0H12.0088C12.0261 0.000128498 12.0433 0.00217848 12.0605 0.00292969ZM11.999 3.95605C11.3497 4.65847 10.4938 5.34405 9.42871 5.78516L9.02637 5.93652C8.08837 6.25523 7.14649 6.3418 6.30859 6.30762C6.34771 7.26561 6.22779 8.35914 5.78516 9.42773L5.60742 9.81934C5.17043 10.7061 4.56755 11.4323 3.95215 12C4.56765 12.5678 5.17042 13.2938 5.60742 14.1807L5.78516 14.5723C6.22782 15.641 6.34775 16.7343 6.30859 17.6924C7.14654 17.6582 8.08832 17.7447 9.02637 18.0635L9.42871 18.2148C10.4937 18.6559 11.3498 19.3406 11.999 20.043C12.6483 19.3404 13.5051 18.6561 14.5703 18.2148L14.9727 18.0635C15.9107 17.7447 16.8525 17.6582 17.6904 17.6924C17.6513 16.7344 17.7713 15.6408 18.2139 14.5723L18.3916 14.1807C18.8285 13.2939 19.4315 12.5677 20.0469 12C19.4316 11.4323 18.8285 10.7068 18.3916 9.82031L18.2139 9.42871C17.7711 8.36004 17.6513 7.26569 17.6904 6.30762C16.8525 6.34177 15.9107 6.25531 14.9727 5.93652L14.5703 5.78516C13.5049 5.34387 12.6484 4.65871 11.999 3.95605ZM14.3096 12.6768C14.6483 12.2082 15.3029 12.1027 15.7715 12.4414C16.2398 12.7802 16.3446 13.4349 16.0059 13.9033C15.1127 15.1385 13.6489 15.9414 12 15.9414C10.3509 15.9414 8.88633 15.1387 7.99316 13.9033C7.65444 13.4348 7.76004 12.7802 8.22852 12.4414C8.69705 12.1027 9.35169 12.2082 9.69043 12.6768C10.2021 13.3843 11.0435 13.8477 12 13.8477C12.9565 13.8476 13.7979 13.3843 14.3096 12.6768Z" fill="url(#paint0_linear_1594_89122)"/>
<defs>
<linearGradient id="paint0_linear_1594_89122" x1="7.4397" y1="0.839872" x2="16.3481" y2="22.497" gradientUnits="userSpaceOnUse">
<stop stop-color="#6DAAF2"/>
<stop offset="0.75" stop-color="#5F249F"/>
</linearGradient>
</defs>
</svg>
